<svg width="32" height="32" viewBox="0 0 32 32" fill="none" xmlns="http://www.w3.org/2000/svg">
<rect width="32" height="32" rx="16" fill="#13EC6D"/>
<path d="M8.49967 23.0846C8.04134 23.0846 7.64898 22.9214 7.32259 22.5951C6.9962 22.2687 6.83301 21.8763 6.83301 21.418C6.83301 20.9596 6.9962 20.5673 7.32259 20.2409C7.64898 19.9145 8.04134 19.7513 8.49967 19.7513C8.58301 19.7513 8.65592 19.7513 8.71842 19.7513C8.78092 19.7513 8.8469 19.7652 8.91634 19.793L12.708 16.0013C12.6802 15.9319 12.6663 15.8659 12.6663 15.8034C12.6663 15.7409 12.6663 15.668 12.6663 15.5846C12.6663 15.1263 12.8295 14.7339 13.1559 14.4076C13.4823 14.0812 13.8747 13.918 14.333 13.918C14.7913 13.918 15.1837 14.0812 15.5101 14.4076C15.8365 14.7339 15.9997 15.1263 15.9997 15.5846C15.9997 15.6124 15.9858 15.7513 15.958 16.0013L18.083 18.1263C18.1525 18.0985 18.2184 18.0846 18.2809 18.0846C18.3434 18.0846 18.4163 18.0846 18.4997 18.0846C18.583 18.0846 18.6559 18.0846 18.7184 18.0846C18.7809 18.0846 18.8469 18.0985 18.9163 18.1263L21.8747 15.168C21.8469 15.0985 21.833 15.0326 21.833 14.9701C21.833 14.9076 21.833 14.8346 21.833 14.7513C21.833 14.293 21.9962 13.9006 22.3226 13.5742C22.649 13.2478 23.0413 13.0846 23.4997 13.0846C23.958 13.0846 24.3504 13.2478 24.6768 13.5742C25.0031 13.9006 25.1663 14.293 25.1663 14.7513C25.1663 15.2096 25.0031 15.602 24.6768 15.9284C24.3504 16.2548 23.958 16.418 23.4997 16.418C23.4163 16.418 23.3434 16.418 23.2809 16.418C23.2184 16.418 23.1525 16.4041 23.083 16.3763L20.1247 19.3346C20.1525 19.4041 20.1663 19.4701 20.1663 19.5326C20.1663 19.5951 20.1663 19.668 20.1663 19.7513C20.1663 20.2096 20.0031 20.602 19.6768 20.9284C19.3504 21.2548 18.958 21.418 18.4997 21.418C18.0413 21.418 17.649 21.2548 17.3226 20.9284C16.9962 20.602 16.833 20.2096 16.833 19.7513C16.833 19.668 16.833 19.5951 16.833 19.5326C16.833 19.4701 16.8469 19.4041 16.8747 19.3346L14.7497 17.2096C14.6802 17.2374 14.6143 17.2513 14.5518 17.2513C14.4893 17.2513 14.4163 17.2513 14.333 17.2513C14.3052 17.2513 14.1663 17.2374 13.9163 17.2096L10.1247 21.0013C10.1525 21.0707 10.1663 21.1367 10.1663 21.1992C10.1663 21.2617 10.1663 21.3346 10.1663 21.418C10.1663 21.8763 10.0031 22.2687 9.67676 22.5951C9.35037 22.9214 8.95801 23.0846 8.49967 23.0846ZM9.33301 14.7305L8.81217 13.6055L7.68717 13.0846L8.81217 12.5638L9.33301 11.4388L9.85384 12.5638L10.9788 13.0846L9.85384 13.6055L9.33301 14.7305ZM18.4997 13.918L17.708 12.2096L15.9997 11.418L17.708 10.6263L18.4997 8.91797L19.2913 10.6263L20.9997 11.418L19.2913 12.2096L18.4997 13.918Z" fill="white"/>
</svg>
